<svg width="816" height="317" viewBox="0 0 816 317" fill="none" xmlns="http://www.w3.org/2000/svg" role="img" aria-labelledby="logoTitle logoDesc">
<title id="logoTitle">MSN Air Conditioning Engineers</title>
<desc id="logoDesc">Approximate vector recreation of the MSN brand mark with wordmark and subtitle.</desc>
<g fill="#111827">
  <path d="M49 49C49 43.4772 53.4772 39 59 39H216C221.523 39 226 43.4772 226 49C226 54.5228 221.523 59 216 59H59C53.4772 59 49 54.5228 49 49Z"/>
  <path d="M49 92C49 86.4772 53.4772 82 59 82H216C221.523 82 226 86.4772 226 92C226 97.5228 221.523 102 216 102H59C53.4772 102 49 97.5228 49 92Z"/>
  <path d="M49 135C49 129.477 53.4772 125 59 125H216C221.523 125 226 129.477 226 135C226 140.523 221.523 145 216 145H59C53.4772 145 49 140.523 49 135Z"/>
  <path d="M49 178C49 172.477 53.4772 168 59 168H216C221.523 168 226 172.477 226 178C226 183.523 221.523 188 216 188H59C53.4772 188 49 183.523 49 178Z"/>

  <path d="M282 50C282 43.9249 286.925 39 293 39H315.718C318.757 39 321.655 40.2636 323.732 42.4895L404.5 129.078L485.268 42.4895C487.345 40.2636 490.243 39 493.282 39H516C522.075 39 527 43.9249 527 50V177C527 183.075 522.075 188 516 188C509.925 188 505 183.075 505 177V77.6792L421.337 167.364C417.166 171.835 409.834 171.835 405.663 167.364L304 77.6792V177C304 183.075 299.075 188 293 188C286.925 188 282 183.075 282 177V50Z"/>

  <path d="M569 60C569 48.402 578.402 39 590 39H716C722.075 39 727 43.9249 727 50C727 56.0751 722.075 61 716 61H591V92H693C709.569 92 723 105.431 723 122V127C723 143.569 709.569 157 693 157H591V188H717C723.075 188 728 192.925 728 199C728 205.075 723.075 210 717 210H590C578.402 210 569 200.598 569 189V60ZM591 114V135H693C697.418 135 701 131.418 701 127V122C701 117.582 697.418 114 693 114H591Z"/>

  <path d="M752 50C752 43.9249 756.925 39 763 39H783.826C786.969 39 789.964 40.3419 792.05 42.6862L915 180.882V50C915 43.9249 919.925 39 926 39C932.075 39 937 43.9249 937 50V199C937 205.075 932.075 210 926 210H905.174C902.031 210 899.036 208.658 896.95 206.314L774 68.1177V199C774 205.075 769.075 210 763 210C756.925 210 752 205.075 752 199V50Z" transform="translate(-135 0) scale(0.82 0.82)"/>
  <path d="M608 50C608 43.9249 612.925 39 619 39H639.826C642.969 39 645.964 40.3419 648.05 42.6862L771 180.882V50C771 43.9249 775.925 39 782 39C788.075 39 793 43.9249 793 50V199C793 205.075 788.075 210 782 210H761.174C758.031 210 755.036 208.658 752.95 206.314L630 68.1177V199C630 205.075 625.075 210 619 210C612.925 210 608 205.075 608 199V50Z"/>

  <path d="M80.436 276L95.164 235.976H109.796L124.524 276H115.5L112.236 266.544H92.724L89.412 276H80.436ZM95.172 259.536H109.788L102.492 238.728L95.172 259.536Z"/>
  <path d="M129.896 276V235.976H139.016L152.4 263.912L165.832 235.976H174.952V276H166.456V252.224L155.944 273.224H148.8L138.344 252.248V276H129.896Z"/>
  <path d="M183.429 276V235.976H214.581V242.88H191.973V252.32H212.685V258.984H191.973V269.096H215.157V276H183.429Z"/>
  <path d="M222.38 276V235.976H241.412C245.732 235.976 249.092 236.64 251.492 237.968C253.892 239.296 255.588 241.08 256.58 243.32C257.572 245.544 258.068 248.024 258.068 250.76C258.068 253.304 257.62 255.616 256.724 257.696C255.828 259.76 254.324 261.48 252.212 262.856C250.116 264.216 247.236 265.064 243.572 265.4L248.396 266.864H222.38ZM230.924 269.384L226.676 265.208H241.028C243.236 265.208 244.972 264.84 246.236 264.104C247.5 263.368 248.396 262.36 248.924 261.08C249.468 259.784 249.74 258.312 249.74 256.664C249.74 254.936 249.428 253.352 248.804 251.912C248.18 250.472 247.164 249.32 245.756 248.456C244.364 247.592 242.5 247.16 240.164 247.16H230.924V269.384ZM250.18 276L240.068 260.952L248.444 259.656L260.22 276H250.18Z"/>
  <path d="M267.814 276V235.976H276.358V276H267.814Z"/>
  <path d="M284.678 256.016C284.678 251.952 285.478 248.4 287.078 245.36C288.694 242.304 290.966 239.928 293.894 238.232C296.838 236.52 300.286 235.664 304.238 235.664C309.062 235.664 313.118 236.856 316.406 239.24C319.694 241.608 321.742 244.84 322.55 248.936H313.358C312.766 247.08 311.646 245.624 309.998 244.568C308.366 243.496 306.446 242.96 304.238 242.96C301.854 242.96 299.766 243.512 297.974 244.616C296.198 245.72 294.814 247.296 293.822 249.344C292.846 251.376 292.358 253.768 292.358 256.52V257.224C292.358 259.928 292.846 262.32 293.822 264.4C294.814 266.48 296.198 268.096 297.974 269.248C299.766 270.384 301.854 270.952 304.238 270.952C306.59 270.952 308.59 270.376 310.238 269.224C311.886 268.072 313.014 266.472 313.622 264.424H322.79C322.038 268.744 320.03 272.184 316.766 274.744C313.518 277.288 309.342 278.56 304.238 278.56C300.286 278.56 296.838 277.728 293.894 276.064C290.966 274.384 288.694 272.04 287.078 269.032C285.478 266.024 284.678 262.512 284.678 258.496V256.016Z"/>
  <path d="M324.498 276L339.226 235.976H353.858L368.586 276H359.562L356.298 266.544H336.786L333.474 276H324.498ZM339.234 259.536H353.85L346.554 238.728L339.234 259.536Z"/>
  <path d="M384.019 276V243H371.451V235.976H405.155V243H392.563V276H384.019Z"/>
  <path d="M411.002 276V235.976H419.546V276H411.002Z"/>
  <path d="M448.65 278.56C444.634 278.56 441.114 277.704 438.09 275.992C435.082 274.264 432.746 271.856 431.082 268.768C429.418 265.664 428.586 262.072 428.586 257.992V254.008C428.586 249.928 429.418 246.344 431.082 243.256C432.746 240.152 435.082 237.744 438.09 236.032C441.114 234.32 444.634 233.464 448.65 233.464C452.666 233.464 456.178 234.32 459.186 236.032C462.21 237.744 464.554 240.152 466.218 243.256C467.882 246.344 468.714 249.928 468.714 254.008V257.992C468.714 262.072 467.882 265.664 466.218 268.768C464.554 271.856 462.21 274.264 459.186 275.992C456.178 277.704 452.666 278.56 448.65 278.56ZM448.65 271.144C451.034 271.144 453.122 270.56 454.914 269.392C456.706 268.224 458.098 266.576 459.09 264.448C460.082 262.304 460.578 259.8 460.578 256.936V255.088C460.578 252.224 460.082 249.728 459.09 247.6C458.098 245.472 456.706 243.824 454.914 242.656C453.122 241.488 451.034 240.904 448.65 240.904C446.266 240.904 444.17 241.488 442.362 242.656C440.57 243.824 439.178 245.472 438.186 247.6C437.21 249.728 436.722 252.224 436.722 255.088V256.936C436.722 259.8 437.21 262.304 438.186 264.448C439.178 266.576 440.57 268.224 442.362 269.392C444.17 270.56 446.266 271.144 448.65 271.144Z"/>
  <path d="M477.474 276V235.976H486.786L507.378 263.648V235.976H515.922V276H506.61L486.018 248.304V276H477.474Z"/>
  <path d="M533.642 276V235.976H564.794V242.88H542.186V252.32H562.898V258.984H542.186V269.096H565.37V276H533.642Z"/>
  <path d="M572.593 276V235.976H581.905L602.497 263.648V235.976H611.041V276H601.729L581.137 248.304V276H572.593Z"/>
  <path d="M619.761 276V235.976H650.913V242.88H628.305V252.32H649.017V258.984H628.305V269.096H651.489V276H619.761Z"/>
  <path d="M658.712 276V235.976H677.744C682.064 235.976 685.424 236.64 687.824 237.968C690.224 239.296 691.92 241.08 692.912 243.32C693.904 245.544 694.4 248.024 694.4 250.76C694.4 253.304 693.952 255.616 693.056 257.696C692.16 259.76 690.656 261.48 688.544 262.856C686.448 264.216 683.568 265.064 679.904 265.4L684.728 266.864H658.712ZM667.256 269.384L663.008 265.208H677.36C679.568 265.208 681.304 264.84 682.568 264.104C683.832 263.368 684.728 262.36 685.256 261.08C685.8 259.784 686.072 258.312 686.072 256.664C686.072 254.936 685.76 253.352 685.136 251.912C684.512 250.472 683.496 249.32 682.088 248.456C680.696 247.592 678.832 247.16 676.496 247.16H667.256V269.384ZM686.512 276L676.4 260.952L684.776 259.656L696.552 276H686.512Z"/>
  <path d="M700.034 276L714.762 235.976H729.394L744.122 276H735.098L731.834 266.544H712.322L709.01 276H700.034ZM714.77 259.536H729.386L722.09 238.728L714.77 259.536Z"/>
  <path d="M754.429 276V243H741.861V235.976H775.565V243H762.973V276H754.429Z"/>
  <path d="M781.412 276V235.976H789.956V276H781.412Z"/>
  <path d="M819.06 278.56C815.044 278.56 811.524 277.704 808.5 275.992C805.492 274.264 803.156 271.856 801.492 268.768C799.828 265.664 798.996 262.072 798.996 257.992V254.008C798.996 249.928 799.828 246.344 801.492 243.256C803.156 240.152 805.492 237.744 808.5 236.032C811.524 234.32 815.044 233.464 819.06 233.464C823.076 233.464 826.588 234.32 829.596 236.032C832.62 237.744 834.964 240.152 836.628 243.256C838.292 246.344 839.124 249.928 839.124 254.008V257.992C839.124 262.072 838.292 265.664 836.628 268.768C834.964 271.856 832.62 274.264 829.596 275.992C826.588 277.704 823.076 278.56 819.06 278.56ZM819.06 271.144C821.444 271.144 823.532 270.56 825.324 269.392C827.116 268.224 828.508 266.576 829.5 264.448C830.492 262.304 830.988 259.8 830.988 256.936V255.088C830.988 252.224 830.492 249.728 829.5 247.6C828.508 245.472 827.116 243.824 825.324 242.656C823.532 241.488 821.444 240.904 819.06 240.904C816.676 240.904 814.58 241.488 812.772 242.656C810.98 243.824 809.588 245.472 808.596 247.6C807.62 249.728 807.132 252.224 807.132 255.088V256.936C807.132 259.8 807.62 262.304 808.596 264.448C809.588 266.576 810.98 268.224 812.772 269.392C814.58 270.56 816.676 271.144 819.06 271.144Z" transform="translate(-86 0) scale(0.81 0.81)"/>
  <path d="M763.884 276V235.976H773.196L793.788 263.648V235.976H802.332V276H793.02L772.428 248.304V276H763.884Z"/>
  <path d="M842.498 276L857.226 235.976H871.858L886.586 276H877.562L874.298 266.544H854.786L851.474 276H842.498ZM857.234 259.536H871.85L864.554 238.728L857.234 259.536Z"/>
</g>
</svg>
